<?xml version="1.0" encoding="UTF-8"?>
<svg id="Layer_2" data-name="Layer 2" xmlns="http://www.w3.org/2000/svg" viewBox="0 0 106.15 94.01">
  <defs>
    <style>
      .cls-1 {
        fill: currentColor;
      }
    </style>
  </defs>
  <g id="Layer_1-2" data-name="Layer 1">
    <g>
      <g>
        <path class="cls-1" d="M106.15,94.01H0l.05-.22L21.57,0h63.01l.03.14,21.54,93.87ZM.45,93.65h105.25L84.29.36H21.86L.45,93.65Z"/>
        <rect class="cls-1" x="86.61" y="-.12" width=".36" height="94.83" transform="translate(-7.49 17.61) rotate(-11.11)"/>
        <rect class="cls-1" x="-27.48" y="47.12" width="94.83" height=".36" transform="translate(-30.33 57.7) rotate(-78.84)"/>
        <rect class="cls-1" x="26.2" y="15.21" width="54.33" height=".36"/>
        <rect class="cls-1" x="17.56" y="59.19" width="71.6" height=".36"/>
        <rect class="cls-1" x="53.18" y="15.39" width=".36" height="43.98"/>
      </g>
      <g>
        <rect class="cls-1" x="12.42" y="12.41" width="81.53" height=".18"/>
        <rect class="cls-1" x="12.42" y="15.07" width="81.53" height=".18"/>
        <rect class="cls-1" x="12.42" y="17.37" width="81.53" height=".18"/>
        <rect class="cls-1" x="12.42" y="20.02" width="81.53" height=".18"/>
        <rect class="cls-1" x="12.42" y="22.32" width="81.53" height=".18"/>
        <rect class="cls-1" x="12.42" y="24.26" width="81.53" height=".18"/>
        <rect class="cls-1" x="12.42" y="26.9" width="81.53" height=".18"/>
        <rect class="cls-1" x="17.36" y="10.8" width=".18" height="16.19"/>
        <rect class="cls-1" x="19.72" y="10.8" width=".18" height="16.19"/>
        <rect class="cls-1" x="23.2" y="10.8" width=".18" height="16.19"/>
        <rect class="cls-1" x="26.68" y="10.8" width=".18" height="16.19"/>
        <rect class="cls-1" x="30.16" y="10.8" width=".18" height="16.19"/>
        <rect class="cls-1" x="33.64" y="10.8" width=".18" height="16.19"/>
        <rect class="cls-1" x="37.11" y="10.8" width=".18" height="16.19"/>
        <rect class="cls-1" x="40.59" y="10.8" width=".18" height="16.19"/>
        <rect class="cls-1" x="44.07" y="10.8" width=".18" height="16.19"/>
        <rect class="cls-1" x="47.55" y="10.8" width=".18" height="16.19"/>
        <rect class="cls-1" x="51.02" y="10.8" width=".18" height="16.19"/>
        <rect class="cls-1" x="54.5" y="10.8" width=".18" height="16.19"/>
        <rect class="cls-1" x="57.98" y="10.8" width=".18" height="16.19"/>
        <rect class="cls-1" x="61.46" y="10.8" width=".18" height="16.19"/>
        <rect class="cls-1" x="64.93" y="10.8" width=".18" height="16.19"/>
        <rect class="cls-1" x="68.41" y="10.8" width=".18" height="16.19"/>
        <rect class="cls-1" x="71.89" y="10.8" width=".18" height="16.19"/>
        <rect class="cls-1" x="75.37" y="10.8" width=".18" height="16.19"/>
        <rect class="cls-1" x="78.84" y="10.8" width=".18" height="16.19"/>
        <rect class="cls-1" x="82.32" y="10.8" width=".18" height="16.19"/>
        <rect class="cls-1" x="85.8" y="10.8" width=".18" height="16.19"/>
        <rect class="cls-1" x="89.28" y="10.8" width=".18" height="16.19"/>
        <path class="cls-1" d="M93.95,11.34H12.42c-.3,0-.54-.24-.54-.54s.24-.54.54-.54h81.53c.3,0,.54.24.54.54s-.24.54-.54.54Z"/>
        <path class="cls-1" d="M12.42,40.88c-.59,0-1.07-.48-1.07-1.07V10.8c0-.59.48-1.07,1.07-1.07s1.07.48,1.07,1.07v29c0,.59-.48,1.07-1.07,1.07Z"/>
        <path class="cls-1" d="M93.95,40.88c-.59,0-1.07-.48-1.07-1.07V10.8c0-.59.48-1.07,1.07-1.07s1.07.48,1.07,1.07v29c0,.59-.48,1.07-1.07,1.07Z"/>
      </g>
    </g>
  </g>
</svg>